<?xml version="1.0" encoding="UTF-8"?>
<svg id="Layer_1" data-name="Layer 1" xmlns="http://www.w3.org/2000/svg" viewBox="0 0 601.6 630">
  <defs>
    <style>
      .cls-1 {
        fill: #e6e6e6;
      }

      .cls-1, .cls-2, .cls-3, .cls-4, .cls-5, .cls-6, .cls-7, .cls-8, .cls-9 {
        stroke-width: 0px;
      }

      .cls-2 {
        fill: #ccc;
      }

      .cls-3 {
        fill: #fff;
      }

      .cls-4 {
        fill: #3f3d56;
      }

      .cls-5 {
        fill: #ff6584;
      }

      .cls-6 {
        fill: #327585;
      }

      .cls-7 {
        fill: #ffb8b8;
      }

      .cls-8 {
        fill: #f2f2f2;
      }

      .cls-9 {
        fill: #2f2e41;
      }
    </style>
  </defs>
  <rect class="cls-1" x="424.43" y="115.46" width="1.31" height="85.54" transform="translate(17.38 357) rotate(-46.41)"/>
  <polygon class="cls-1" points="456.61 180.85 455.3 180.93 455.7 187.37 449.24 187.3 449.23 188.61 457.09 188.7 456.61 180.85"/>
  <polygon class="cls-1" points="400.94 127.85 400.93 129.16 394.47 129.08 394.87 135.53 393.56 135.61 393.08 127.76 400.94 127.85"/>
  <circle class="cls-1" cx="425.09" cy="158.23" r="7.2"/>
  <rect class="cls-1" x="136.4" y="157.58" width="85.54" height="1.31" transform="translate(-59.7 167.17) rotate(-43.59)"/>
  <polygon class="cls-1" points="147.16 188.7 155.03 188.61 155.01 187.3 148.55 187.37 148.95 180.93 147.64 180.85 147.16 188.7"/>
  <polygon class="cls-1" points="211.17 127.76 210.69 135.61 209.39 135.53 209.78 129.08 203.32 129.16 203.31 127.85 211.17 127.76"/>
  <circle class="cls-1" cx="179.17" cy="158.23" r="7.2"/>
  <path class="cls-4" d="m355.81,217.33h-108.67c-3.25,0-5.89-2.64-5.89-5.89V73.95c0-3.25,2.64-5.89,5.89-5.89h108.67c3.25,0,5.89,2.64,5.89,5.89v137.48c0,3.25-2.64,5.89-5.89,5.89Zm-108.67-147.95c-2.53,0-4.58,2.05-4.58,4.58v137.48c0,2.53,2.05,4.58,4.58,4.58h108.67c2.53,0,4.58-2.05,4.58-4.58V73.95c0-2.53-2.05-4.58-4.58-4.58h-108.67Z"/>
  <path class="cls-6" d="m292.43,134.14h-23.92c-1.63,0-2.94-1.32-2.95-2.95v-28.23c0-1.63,1.32-2.94,2.95-2.95h23.92c1.63,0,2.94,1.32,2.95,2.95v28.23c0,1.63-1.32,2.94-2.95,2.95Z"/>
  <path class="cls-2" d="m338.91,147.24h-23.92c-1.63,0-2.94-1.32-2.95-2.95v-28.23c0-1.63,1.32-2.94,2.95-2.95h23.92c1.63,0,2.94,1.32,2.95,2.95v28.23c0,1.63-1.32,2.94-2.95,2.95Z"/>
  <path class="cls-5" d="m301.6,187.17h-23.92c-1.63,0-2.94-1.32-2.95-2.95v-28.23c0-1.63,1.32-2.94,2.95-2.95h23.92c1.63,0,2.94,1.32,2.95,2.95v28.23c0,1.63-1.32,2.94-2.95,2.95Z"/>
  <path class="cls-4" d="m531.22,358.69h-108.67c-3.25,0-5.89-2.64-5.89-5.89v-137.48c0-3.25,2.64-5.89,5.89-5.89h108.67c3.25,0,5.89,2.64,5.89,5.89v137.48c0,3.25-2.64,5.89-5.89,5.89Zm-108.67-147.95c-2.53,0-4.58,2.05-4.58,4.58v137.48c0,2.53,2.05,4.58,4.58,4.58h108.67c2.53,0,4.58-2.05,4.58-4.58v-137.48c0-2.53-2.05-4.58-4.58-4.58h-108.67Z"/>
  <path class="cls-6" d="m495.54,239.87h-37.32c-1.45,0-2.62-1.17-2.62-2.62s1.17-2.62,2.62-2.62h37.32c1.45,0,2.62,1.17,2.62,2.62s-1.17,2.62-2.62,2.62h0Z"/>
  <path class="cls-2" d="m513.87,264.74h-73.98c-1.45,0-2.62-1.17-2.63-2.61,0-1.45,1.17-2.62,2.61-2.63h73.99c1.45,0,2.62,1.17,2.63,2.61,0,1.45-1.17,2.62-2.61,2.63h-.01Z"/>
  <path class="cls-2" d="m513.87,278.49h-73.98c-1.45,0-2.62-1.17-2.63-2.61,0-1.45,1.17-2.62,2.61-2.63h73.99c1.45,0,2.62,1.17,2.63,2.61,0,1.45-1.17,2.62-2.61,2.63h-.01Z"/>
  <path class="cls-2" d="m513.87,292.24h-73.98c-1.45,0-2.62-1.17-2.63-2.61,0-1.45,1.17-2.62,2.61-2.63h73.99c1.45,0,2.62,1.17,2.63,2.61,0,1.45-1.17,2.62-2.61,2.63h-.01Z"/>
  <path class="cls-2" d="m513.87,305.99h-73.98c-1.45,0-2.62-1.17-2.63-2.61,0-1.45,1.17-2.62,2.61-2.63h73.99c1.45,0,2.62,1.17,2.63,2.61,0,1.45-1.17,2.62-2.61,2.63h-.01Z"/>
  <path class="cls-2" d="m513.87,319.74h-73.98c-1.45,0-2.62-1.17-2.63-2.61,0-1.45,1.17-2.62,2.61-2.63h73.99c1.45,0,2.62,1.17,2.63,2.61,0,1.45-1.17,2.62-2.61,2.63h-.01Z"/>
  <path class="cls-2" d="m513.87,333.48h-73.98c-1.45,0-2.62-1.17-2.63-2.61,0-1.45,1.17-2.62,2.61-2.63h73.99c1.45,0,2.62,1.17,2.63,2.61,0,1.45-1.17,2.62-2.61,2.63h-.01Z"/>
  <path class="cls-4" d="m180.4,358.69h-108.67c-3.25,0-5.89-2.64-5.89-5.89v-137.48c0-3.25,2.64-5.89,5.89-5.89h108.67c3.25,0,5.89,2.64,5.89,5.89v137.48c0,3.25-2.64,5.89-5.89,5.89Zm-108.67-147.95c-2.53,0-4.58,2.05-4.58,4.58v137.48c0,2.53,2.05,4.58,4.58,4.58h108.67c2.53,0,4.58-2.05,4.58-4.58v-137.48c0-2.53-2.05-4.58-4.58-4.58h-108.67Z"/>
  <path class="cls-4" d="m163.17,241.88h-32.73c-1.45,0-2.62-1.17-2.62-2.62s1.17-2.62,2.62-2.62h32.73c1.45,0,2.62,1.17,2.62,2.62s-1.17,2.62-2.62,2.62Z"/>
  <path class="cls-4" d="m163.17,255.63h-32.73c-1.45,0-2.62-1.17-2.62-2.62s1.17-2.62,2.62-2.62h32.73c1.45,0,2.62,1.17,2.62,2.62s-1.17,2.62-2.62,2.62Z"/>
  <path class="cls-6" d="m113.64,263.46h-23.92c-1.63,0-2.94-1.32-2.95-2.95v-28.23c0-1.63,1.32-2.94,2.95-2.95h23.92c1.63,0,2.94,1.32,2.95,2.95v28.23c0,1.63-1.32,2.94-2.95,2.95Z"/>
  <path class="cls-2" d="m162.94,283.78h-73.98c-1.45,0-2.62-1.17-2.63-2.61,0-1.45,1.17-2.62,2.61-2.63h73.99c1.45,0,2.62,1.17,2.63,2.61,0,1.45-1.17,2.62-2.61,2.63h-.01Z"/>
  <path class="cls-2" d="m162.94,297.53h-73.98c-1.45,0-2.62-1.17-2.63-2.61,0-1.45,1.17-2.62,2.61-2.63h73.99c1.45,0,2.62,1.17,2.63,2.61,0,1.45-1.17,2.62-2.61,2.63h-.01Z"/>
  <path class="cls-2" d="m162.94,311.28h-73.98c-1.45,0-2.62-1.17-2.63-2.61,0-1.45,1.17-2.62,2.61-2.63h73.99c1.45,0,2.62,1.17,2.63,2.61,0,1.45-1.17,2.62-2.61,2.63h-.01Z"/>
  <path class="cls-2" d="m162.94,325.03h-73.98c-1.45,0-2.62-1.17-2.63-2.61,0-1.45,1.17-2.62,2.61-2.63h73.99c1.45,0,2.62,1.17,2.63,2.61,0,1.45-1.17,2.62-2.61,2.63h-.01Z"/>
  <path class="cls-2" d="m162.94,338.77h-73.98c-1.45,0-2.62-1.17-2.63-2.61,0-1.45,1.17-2.62,2.61-2.63h73.99c1.45,0,2.62,1.17,2.63,2.61,0,1.45-1.17,2.62-2.61,2.63h-.01Z"/>
  <g>
    <path class="cls-8" d="m337.96,535.84l-2.5.61c1.13.16,2.26.32,3.39.46h41.75c3.13-.4,6.24-.89,9.34-1.48,18.65-3.44,36.45-10.49,52.4-20.76,9.8-6.37,19.14-14.21,24.21-24.73,6.89-14.29,4.48-32.38-5.35-44.82-3.58-4.49-7.99-8.25-12.99-11.08-.75-.43-1.5-.83-2.27-1.22-8.33-4.18-17.68-5.9-26.95-4.93-15.77,1.72-30.31,11.35-38.71,24.8-9.28,14.86-11.06,33.04-12.61,50.49-2.81-9.05-13.37-14.58-22.64-12.58-9.26,1.99-16.41,10.64-17.56,20.05-1.13,9.2,3.05,18.65,10.01,24.78.16.13.31.27.47.41Z"/>
    <path class="cls-3" d="m370.16,536.91h2.09c.21-.17.37-.38.47-.63.12-.28.23-.57.35-.85,16.17-39.11,41.83-73.58,74.65-100.3.35-.25.54-.67.49-1.09-.13-.88-.95-1.48-1.83-1.35-.28.04-.55.16-.77.34-13.01,10.6-24.94,22.45-35.63,35.39-16.72,20.16-30.25,42.76-40.12,67.01,0,.02-.01.04-.02.06-.24.49-.11,1.08.32,1.42Z"/>
    <path class="cls-7" d="m296.96,373c0-4.64,3.77-8.4,8.41-8.41.08,0,.16,0,.24,0l26-20.72-18.63-18.63c-3.22-3.2-3.23-8.41-.03-11.62,3.2-3.22,8.41-3.23,11.62-.03,0,0,.02.02.03.03l29.95,29.95-40.78,29.66c-.12,4.64-3.99,8.3-8.63,8.18-4.55-.12-8.18-3.85-8.18-8.4Z"/>
    <polygon class="cls-7" points="266.44 526.6 257.64 523.32 266.12 487.84 279.1 492.69 266.44 526.6"/>
    <path class="cls-9" d="m251.92,518.32l17.34,6.47h0l-3.99,10.68h0l-27.63-10.32h0l.14-.38c2.12-5.69,8.46-8.58,14.14-6.45Z"/>
    <polygon class="cls-7" points="345.54 526.74 336.15 526.74 331.69 490.54 345.54 490.54 345.54 526.74"/>
    <path class="cls-9" d="m329.05,524.06h18.5v11.4h-29.5v-.4c0-6.07,4.92-10.99,10.99-10.99Z"/>
    <path class="cls-9" d="m333.11,512.97c-.7-.67-1.07-1.62-1.01-2.59,1.67-27.65-12.9-77.9-17.4-92.65-.25-.84-.91-1.49-1.75-1.72-.86-.25-1.78-.04-2.45.55-24.34,21.2-31.6,81.02-32.81,92.8-.19,1.82-1.82,3.15-3.64,2.96-.03,0-.05,0-.08,0l-12.15-1.52c-1.82-.23-3.11-1.89-2.89-3.71.01-.1.03-.19.05-.29l31.85-147.28.02-.09.06-.07c7.7-9.24,30.02-5.64,30.97-5.49l.1.02.08.06c28.66,23.77,27.21,133.93,26.62,155.77-.05,1.68-1.34,3.06-3.01,3.21l-9.95.95c-.11.01-.21.02-.32.02-.86,0-1.69-.33-2.3-.93Z"/>
    <circle class="cls-7" cx="316.26" cy="276.45" r="18.14"/>
    <path class="cls-6" d="m334.07,310.6s-22.82-19.9-41.49-3.83h0c-7.12,13.01-6.13,25.91-5.58,39.53v11.08l37.6-1,9.47-45.77Z"/>
    <path class="cls-9" d="m313.32,279.58l-7.79-9.18c-2.01-2.37-4.11-4.94-4.39-8.03-.31-3.39,1.75-6.68,4.57-8.59s6.28-2.62,9.67-2.89c6.29-.49,12.91.55,18.08,4.17s8.55,10.14,7.29,16.32c-.99,4.87-4.65,9.53-3.23,14.29,1.56,5.21,7.94,6.81,13.14,8.36,8.74,2.61,17.09,7.74,21.67,15.63,4.58,7.89,4.56,18.77-1.55,25.55-3.96,4.39-9.92,6.61-15.82,6.94-5.9.33-11.77-1.06-17.36-2.96-5.15-1.75-10.25-4-14.3-7.63-4.06-3.63-6.98-8.82-6.85-14.26.12-5.18,2.9-9.91,4.04-14.96,1.83-8.62-1.1-17.56-7.68-23.43"/>
    <path class="cls-6" d="m294.06,443.37h-22.55c-1.53,0-2.78-1.24-2.78-2.78v-26.61c0-1.53,1.24-2.78,2.78-2.78h22.55c1.53,0,2.78,1.24,2.78,2.78v26.61c0,1.53-1.24,2.78-2.78,2.78Z"/>
    <path class="cls-7" d="m275.68,418.63c-2.23-3.47-1.53-8.06,1.63-10.71l12.34-97.25c.55-4.3,4.21-7.52,8.54-7.53h.12c4.75.06,8.56,3.97,8.5,8.72,0,.48-.05.95-.14,1.42l-17.35,96.04h0c2.69,3.68,1.9,8.84-1.77,11.53-.46.34-.95.62-1.47.86-1.05.48-2.19.72-3.34.72-2.85.01-5.5-1.42-7.05-3.81Z"/>
    <path class="cls-4" d="m410.05,536.91h-189.78c-.41,0-.74-.33-.74-.74s.33-.74.74-.74h189.78c.41,0,.74.33.74.74s-.33.74-.74.74Z"/>
  </g>
</svg>