<?xml version="1.0" encoding="UTF-8"?>
<svg xmlns="http://www.w3.org/2000/svg" xmlns:xlink="http://www.w3.org/1999/xlink" viewBox="0 0 500 500">
  <defs>
    <style>
      .cls-1 {
        fill: #bdc2c2;
      }

      .cls-1, .cls-2, .cls-3, .cls-4, .cls-5, .cls-6, .cls-7, .cls-8, .cls-9, .cls-10, .cls-11, .cls-12, .cls-13, .cls-14, .cls-15, .cls-16, .cls-17, .cls-18, .cls-19, .cls-20, .cls-21, .cls-22, .cls-23, .cls-24, .cls-25, .cls-26 {
        stroke-width: 0px;
      }

      .cls-2 {
        fill: url(#linear-gradient);
      }

      .cls-3 {
        fill: #71afae;
        opacity: .19;
      }

      .cls-4 {
        fill: #083d49;
      }

      .cls-5 {
        fill: #e4f0f0;
      }

      .cls-27 {
        mix-blend-mode: lighten;
      }

      .cls-28 {
        isolation: isolate;
      }

      .cls-6, .cls-12, .cls-29 {
        fill: #fff;
      }

      .cls-6, .cls-30 {
        mix-blend-mode: overlay;
      }

      .cls-7 {
        fill: #123c4a;
      }

      .cls-8 {
        fill: none;
      }

      .cls-9 {
        fill: #777;
      }

      .cls-10 {
        fill: #494d52;
      }

      .cls-11 {
        fill: #235968;
      }

      .cls-13 {
        fill: url(#linear-gradient-2);
      }

      .cls-14 {
        fill: #313e3f;
      }

      .cls-15 {
        fill: url(#radial-gradient-2);
      }

      .cls-16 {
        fill: url(#linear-gradient-3);
      }

      .cls-31 {
        fill: #102d35;
        stroke: #2d2d2d;
      }

      .cls-31, .cls-29 {
        stroke-miterlimit: 10;
        stroke-width: .63px;
      }

      .cls-17 {
        fill: #646a6b;
      }

      .cls-18 {
        fill: #7e8989;
      }

      .cls-19 {
        fill: #f4f4f4;
      }

      .cls-29 {
        stroke: #fff;
      }

      .cls-20 {
        fill: #d6d6d6;
      }

      .cls-32 {
        mask: url(#mask);
      }

      .cls-21 {
        fill: #415354;
      }

      .cls-22 {
        fill: url(#radial-gradient);
        opacity: .42;
      }

      .cls-23 {
        fill: url(#radial-gradient-3);
      }

      .cls-24 {
        fill: #c7d0d1;
      }

      .cls-25 {
        fill: url(#linear-gradient-4);
      }

      .cls-33 {
        mix-blend-mode: multiply;
      }

      .cls-26 {
        fill: #f5f3ff;
      }
    </style>
    <mask id="mask" x="20" y="37.7" width="472.75" height="457.77" maskUnits="userSpaceOnUse">
      <ellipse class="cls-29" cx="252.37" cy="255.44" rx="211.9" ry="217.43"/>
    </mask>
    <radialGradient id="radial-gradient" cx="529.51" cy="-1894.26" fx="529.51" fy="-1894.26" r="305.75" gradientTransform="translate(-63.08 2199.39) scale(.6 1)" gradientUnits="userSpaceOnUse">
      <stop offset="0" stop-color="#3fa3a3"/>
      <stop offset=".09" stop-color="#44a4a3" stop-opacity=".97"/>
      <stop offset=".61" stop-color="#5eaaa8" stop-opacity=".85"/>
      <stop offset="1" stop-color="#68adaa" stop-opacity=".8"/>
    </radialGradient>
    <radialGradient id="radial-gradient-2" cx="-3579.28" cy="-5908.77" fx="-3579.28" fy="-5908.77" r="39.78" gradientTransform="translate(3071.62 50071.41) rotate(-1.36) scale(.77 8.43) skewX(-13.77)" gradientUnits="userSpaceOnUse">
      <stop offset="0" stop-color="#858585" stop-opacity=".3"/>
      <stop offset=".1" stop-color="#3a3a3a" stop-opacity=".13"/>
      <stop offset=".2" stop-color="#000" stop-opacity="0"/>
    </radialGradient>
    <radialGradient id="radial-gradient-3" cx="-4055.82" cy="-6319.44" fx="-4055.82" fy="-6319.44" r="29.81" gradientTransform="translate(12859.99 -2768.29) rotate(-90) scale(.77 1.98)" gradientUnits="userSpaceOnUse">
      <stop offset="0" stop-color="#858585" stop-opacity=".4"/>
      <stop offset=".13" stop-color="#2b2b2b" stop-opacity=".13"/>
      <stop offset=".2" stop-color="#000" stop-opacity="0"/>
    </radialGradient>
    <linearGradient id="linear-gradient" x1="-441.55" y1="499.8" x2="-431.47" y2="499.8" gradientTransform="translate(694.88 -193.4) rotate(-6.48)" gradientUnits="userSpaceOnUse">
      <stop offset=".04" stop-color="#aebcbd"/>
      <stop offset=".43" stop-color="#c8d1d2"/>
      <stop offset="1" stop-color="#f7f7f7"/>
    </linearGradient>
    <linearGradient id="linear-gradient-2" x1="296.97" y1="351.13" x2="315.76" y2="351.13" gradientUnits="userSpaceOnUse">
      <stop offset="0" stop-color="#dbdbdb"/>
      <stop offset=".51" stop-color="#d9d9d9"/>
      <stop offset=".69" stop-color="#d2d5d5"/>
      <stop offset=".82" stop-color="#c6cccd"/>
      <stop offset=".92" stop-color="#b5c1c2"/>
      <stop offset=".96" stop-color="#aebcbd"/>
    </linearGradient>
    <linearGradient id="linear-gradient-3" y1="340.24" x2="315.84" y2="340.24" xlink:href="#linear-gradient-2"/>
    <linearGradient id="linear-gradient-4" x1="298.49" y1="341.61" x2="313.9" y2="341.61" gradientUnits="userSpaceOnUse">
      <stop offset="0" stop-color="#72614c"/>
      <stop offset="1" stop-color="#000"/>
    </linearGradient>
  </defs>
  <g class="cls-28">
    <g id="Reflection">
      <g id="Reflection-2" data-name="Reflection">
        <g>
          <g id="Circle_Outline" data-name="Circle Outline">
            <ellipse id="Circle" class="cls-3" cx="251.93" cy="261.03" rx="229.45" ry="235.44"/>
          </g>
          <g id="Book">
            <g>
              <line class="cls-20" x1="387.17" y1="131.78" x2="388.76" y2="170.04"/>
              <line class="cls-20" x1="387.64" y1="132.58" x2="389.23" y2="170.84"/>
              <line class="cls-20" x1="388.19" y1="133.61" x2="389.78" y2="171.88"/>
              <polygon class="cls-19" points="390.47 173.77 388.03 131.46 386.36 130.5 388 173.09 390.47 173.77"/>
            </g>
            <polygon class="cls-4" points="388.2 171.55 321.32 190.15 319.58 148.91 386.46 130.3 388.2 171.55"/>
            <path class="cls-11" d="m324.61,194.77l66.37-17.94c.6-.16.98-.87.71-1.34l-2.6-4.43c-.15-.25-.45-.36-.78-.27l-66.37,17.94c-.6.16-.98.87-.71,1.34l2.6,4.43c.15.25.45.36.78.27Z"/>
          </g>
          <g id="Book-2" data-name="Book">
            <polygon class="cls-19" points="92.01 163.97 119.2 134.63 121.1 135.05 94.38 165.14 92.01 163.97"/>
            <g>
              <line class="cls-20" x1="119.69" y1="135.45" x2="95.59" y2="162.4"/>
              <line class="cls-20" x1="118.85" y1="135.71" x2="94.74" y2="162.66"/>
              <line class="cls-20" x1="117.79" y1="136.1" x2="93.69" y2="163.04"/>
            </g>
            <polygon class="cls-4" points="95.13 163.87 137.21 222.76 163.22 193.73 121.14 134.84 95.13 163.87"/>
            <path class="cls-11" d="m131.84,223.92l-42.07-58.06c-.38-.53-.26-1.3.24-1.46l4.71-1.48c.27-.08.57.05.78.33l42.07,58.06c.38.53.26,1.3-.24,1.46l-4.71,1.48c-.27.08-.57-.05-.78-.33Z"/>
          </g>
          <g class="cls-32">
            <g id="Computer_Art" data-name="Computer Art" class="cls-27">
              <g id="Table">
                <ellipse id="Table-2" data-name="Table" class="cls-9" cx="250.19" cy="332.94" rx="77.29" ry="140.71" transform="translate(-88.43 575.39) rotate(-88.68)"/>
                <ellipse id="Undertable" class="cls-24" cx="249.82" cy="325.73" rx="72.35" ry="140.71" transform="translate(-81.57 568) rotate(-88.68)"/>
              </g>
              <path id="Water-3" data-name="Water" class="cls-22" d="m33.6,159.19c3.64-11.77,23.88-17.46,32.1-10.98,72.31,56.96,80.68,8.42,117.08,3.88,38.03-4.74,15.47-56.94,186.95,24.54,86.86,41.28,104.49-96.24,113.95,49.05,2.84,43.62,19.25,100.52-.58,143.58-19.83,43.06-64.16,132.48-123.65,125.86-59.49-6.62-206.47,18.22-233.3-43.06-26.83-61.27-104.99-29.81-95.65-112.61,9.33-82.8-10.19-85.72-10.5-152.36-.09-19.55,10.76-18.74,13.6-27.9Z"/>
            </g>
          </g>
          <g id="Mouse-2" data-name="Mouse" class="cls-33">
            <path class="cls-21" d="m260.92,373.2c-1.68-7.76,8.67-13.42,14.9-14.85,1.41-.32,2.61-.43,3.41-.29,4.34.73,4.34,1.99,6.78,5.75s.61,6.26-4.27,10.02c-4.88,3.76-12.82,4.38-15.87,3.76-3.05-.63-4.41-1.88-4.95-4.38Z"/>
            <path class="cls-18" d="m275.46,362.55c-4.34,1.41-7.31.7-7.54,0s8.23-5.7,9.83-3.91c1.6,1.8-2.29,3.91-2.29,3.91Z"/>
          </g>
          <g id="Keyboard-2" data-name="Keyboard" class="cls-33">
            <g id="Keyboard_Main" data-name="Keyboard Main">
              <path id="Shadow" class="cls-10" d="m174.4,290.66l92.43,55.97c1.42.84.62,1.28.39,3.79l-28.92,16.96c-.66.39-1.11.4-1.77,0l-89.63-55.18c-1.38-.83-1.24-3.19-.62-4.46l25.93-17.04c.67-.42,1.51-.44,2.2-.04Z"/>
              <path id="Keyboard_BG" data-name="Keyboard BG" class="cls-17" d="m175.94,289.95l90.3,53.67c2.14,1.27,2.14,4.44,0,5.71l-26.9,15.88c-1,.59-2.24.58-3.23-.02l-88.54-53.49c-2.08-1.26-2.12-4.33-.07-5.64l25.14-16.06c1.01-.64,2.28-.66,3.31-.05Z"/>
              <g>
                <polygon class="cls-14" points="237.02 340.95 254.14 350.84 247.51 354.84 230.76 344.46 237.02 340.95"/>
                <polygon class="cls-14" points="244.3 336.33 261.91 346.18 255.26 349.84 238.16 340.06 244.3 336.33"/>
              </g>
            </g>
            <polygon id="Main_keys" data-name="Main keys" class="cls-14" points="173.17 293.04 242.82 334.44 218.82 348.6 150.66 307.42 173.17 293.04"/>
            <g id="leftrightupdown">
              <polygon class="cls-14" points="233.34 351.57 237.97 354.32 236.37 355.27 231.84 352.53 233.34 351.57"/>
              <polygon class="cls-14" points="224.73 349.68 229.37 352.44 227.77 353.38 223.24 350.64 224.73 349.68"/>
              <polygon class="cls-14" points="230.72 353.45 235.27 356.15 233.7 357.08 229.25 354.39 230.72 353.45"/>
              <polygon class="cls-14" points="236.51 357.02 241.06 359.72 239.49 360.65 235.04 357.96 236.51 357.02"/>
            </g>
          </g>
          <g id="Computer-2" data-name="Computer">
            <ellipse class="cls-15" cx="259.37" cy="308.05" rx="15.62" ry="65.27" transform="translate(-137.95 373.65) rotate(-59.28)"/>
            <g id="Stand">
              <polygon class="cls-7" points="272.1 277.61 272.1 305.38 263.3 311.87 240.45 297.82 248.74 291.87 248.69 291.84 248.69 263.35 272.1 277.61"/>
            </g>
            <polygon id="Screen" class="cls-31" points="329.15 330.71 207.98 259.44 209.45 163.92 329.15 235.18 329.15 330.71"/>
          </g>
          <g id="Coffee-2" data-name="Coffee" class="cls-33">
            <path class="cls-23" d="m316.55,350.68c6.36,0,11.51,5.27,11.51,11.78,0,6.51-5.15,11.78-11.51,11.78-6.36,0-11.51-5.27-11.51-11.78,0-6.51,5.15-11.78,11.51-11.78Z"/>
            <path id="Handle" class="cls-2" d="m315.84,343.04c-2.98,0-2.02,4.91-2.02,9.68,0,4.77-1.63,9.68,1.35,9.68,2.98,0,7.41-5.25,7.41-10.03,0-4.77-3.76-9.34-6.74-9.34Zm.47,15.04c-3.81,0-3.46-11.89.06-12.43,0,0,3.13,1.58,3.47,5.77.35,4.33-2.18,6.66-3.53,6.66Z"/>
            <path class="cls-13" d="m300.58,337.58h11.57c1.99,0,3.61,1.62,3.61,3.61v19.4c0,2.26-1.84,4.1-4.1,4.1h-10.11c-2.53,0-4.58-2.05-4.58-4.58v-18.92c0-1.99,1.62-3.61,3.61-3.61Z"/>
            <ellipse class="cls-16" cx="306.4" cy="340.24" rx="9.44" ry="4.11"/>
            <ellipse class="cls-1" cx="306.25" cy="340.42" rx="8.18" ry="3.57"/>
            <g id="Coffee_Liquid" data-name="Coffee Liquid">
              <path class="cls-8" d="m306.25,343.98c-3.61,0-6.67-1.02-7.75-2.44-.34.39-.53.81-.53,1.25,0,1.97,3.66,3.57,8.18,3.57s8.18-1.6,8.18-3.57c0-.39-.15-.77-.42-1.13-1.16,1.35-4.14,2.31-7.65,2.31Z"/>
              <path class="cls-25" d="m306.25,343.98c3.51,0,6.49-.96,7.65-2.31-1.08-1.42-4.14-2.44-7.75-2.44s-6.49.96-7.65,2.31c1.08,1.42,4.14,2.44,7.75,2.44Z"/>
            </g>
          </g>
          <g id="Reflection-3" data-name="Reflection">
            <g class="cls-30">
              <path class="cls-5" d="m48.73,277.29c18.81,83.6,81.16,155.36,164.85,177.75,11.85,3.36,24.12,5.42,36.77,6.97l.06,1.19c-12.63.78-25.36.14-37.88-1.83-75.72-12.1-139.51-72.88-158.89-146.56-3.23-12.25-5.28-24.8-6.1-37.43l1.18-.08h0Z"/>
            </g>
            <g class="cls-30">
              <path class="cls-5" d="m460.8,280.56c-5.32,34.99-19.06,72.2-40.53,100.78-16.71,22.59-39.32,40.08-63.29,54.41-3.1,1.79-8,4.67-11.24,6.24,0,0-.79-.89-.79-.89l18.59-16.88c46.87-41.06,64.07-70.42,88.74-126.81,1.68-3.9,5.72-13.34,7.42-17.3,0,0,1.1.45,1.1.45h0Z"/>
            </g>
            <g class="cls-30">
              <path class="cls-12" d="m398.06,125.05c-63.51-57.59-154.99-77.52-235.27-45.55-11.43,4.35-22.43,9.96-33.49,16.14l-.75-.92c9.65-8.04,20.17-15.06,31.3-20.92,67.32-35.44,154.63-25.1,212.76,23.63,9.65,8.06,18.5,17.08,26.36,26.87l-.92.75h0Z"/>
            </g>
            <ellipse class="cls-6" cx="178.63" cy="121.71" rx="25.85" ry="11.33" transform="translate(-28.37 59.47) rotate(-17.53)"/>
            <g class="cls-30">
              <path class="cls-26" d="m33.65,293.23c.85,4.83,2.85,14.33,4.01,19.08,0,0,2.61,9.36,2.61,9.36l3.05,9.2,3.37,9.07,3.78,8.89,4.13,8.72,4.5,8.52,4.87,8.31,5.17,8.12c35.72,53.55,93.8,91.27,157.3,102.02,4.72.75,14.55,2.05,19.34,2.51,0,0-.04,1.19-.04,1.19-52.44-1.65-103.52-23.41-142.17-58.68-38.83-35.02-65.54-83.94-71.1-136.18,0,0,1.18-.13,1.18-.13h0Z"/>
            </g>
            <g class="cls-30">
              <path class="cls-26" d="m456.75,164.74c30.39,80.88,27.93,167.01-30.06,234.94-19.33,22.95-43.45,42.02-69.18,57.26-5.6,3.57-13.77,7.67-19.61,10.82,0,0-.59-1.03-.59-1.03,25.73-14.81,50.23-32.09,71.1-53.29,43.28-42.93,65.89-100.02,63.32-160.96-.9-29.73-7.15-59.08-16.11-87.38,0,0,1.13-.36,1.13-.36h0Z"/>
            </g>
          </g>
        </g>
      </g>
    </g>
  </g>
</svg>