<?xml version="1.0" encoding="UTF-8"?>
<svg id="SkillBulp" xmlns="http://www.w3.org/2000/svg" xmlns:xlink="http://www.w3.org/1999/xlink" viewBox="0 0 566.5 677">
  <defs>
    <style>
      .cls-1 {
        fill: url(#radial-gradient);
        stroke: #e4f0f0;
        stroke-miterlimit: 10;
        stroke-width: 23.61px;
      }

      .cls-2 {
        fill: #e4f4f4;
      }

      .cls-2, .cls-3, .cls-4, .cls-5, .cls-6, .cls-7, .cls-8, .cls-9 {
        stroke-width: 0px;
      }

      .cls-3 {
        fill: #7899a3;
      }

      .cls-4 {
        fill: #7097a0;
      }

      .cls-5, .cls-9 {
        fill: #f4f9f9;
      }

      .cls-6 {
        fill: #fff;
      }

      .cls-7 {
        fill: #e8efef;
      }

      .cls-8 {
        fill: #48bcbc;
        opacity: .55;
      }

      .cls-10 {
        mask: url(#mask);
      }

      .cls-9 {
        opacity: .6;
      }
    </style>
    <radialGradient id="radial-gradient" cx="83.62" cy="305.97" fx="83.62" fy="305.97" r="256.21" gradientTransform="translate(189.76) scale(1.06 1)" gradientUnits="userSpaceOnUse">
      <stop offset=".12" stop-color="#c4b95a" stop-opacity=".1"/>
      <stop offset=".99" stop-color="#d9b83f" stop-opacity=".1"/>
    </radialGradient>
    <mask id="mask" x="46.43" y="82.84" width="464.14" height="480.25" maskUnits="userSpaceOnUse">
      <path id="Bulp-2" data-name="Bulp" class="cls-6" d="m491.74,295.38c0,47.83-16.05,91.99-43.13,127.52-37.24,81.05-76.22,135.43-169.84,135.43s-130.81-49.54-168.23-126.31c-31.53-36.94-50.49-84.6-50.49-136.64,0-117.37,96.63-212.54,215.84-212.54s215.84,95.17,215.84,212.54Z"/>
    </mask>
  </defs>
  <g id="Reflection">
    <g>
      <path id="Bulp" class="cls-1" d="m526.31,276.6c0,55.74-18.42,107.21-49.51,148.62-42.75,94.46-87.51,157.83-194.99,157.83s-150.19-57.74-193.14-147.2c-36.19-43.05-57.97-98.6-57.97-159.25,0-136.79,110.94-247.7,247.81-247.7s247.81,110.91,247.81,247.7Z"/>
      <path id="Bottom" class="cls-4" d="m341.13,584.82v20.98c0,23.93-18.69,43.31-41.77,43.31h-41.72c-23.08,0-41.77-19.38-41.77-43.31v-22.33c18.31,8.99,39.26,14.04,63.64,14.04s43.6-4.55,61.62-12.69Z"/>
      <path class="cls-3" d="m434.5,281.61h-24.27c-3.6-20.76-12.55-39.77-25.53-55.81l16.21-15.8c3.54-3.45,3.44-8.95-.23-12.29l-17.9-16.29c-3.66-3.34-9.5-3.24-13.04.21l-16.44,16.03c-16.07-10.25-34.68-17.13-54.7-19.99v-23.13c0-4.8-4.13-8.69-9.22-8.69h-24.88c-5.09,0-9.22,3.89-9.22,8.69v23.58c-19.6,3.25-37.72,10.46-53.39,20.82l-17.75-17.32c-3.54-3.45-9.37-3.55-13.04-.21l-17.9,16.29c-3.66,3.34-3.76,8.84-.23,12.29l17.89,17.45.48-.44c-12.46,15.78-21.06,34.36-24.57,54.6h-24.27c-5.1,0-9.22,3.89-9.22,8.69v23.45c0,4.8,4.13,8.69,9.22,8.69h24.27c3.43,19.79,11.71,37.98,23.72,53.53l-17.53,17.1c-3.54,3.45-3.44,8.95.23,12.29l17.9,16.29c3.66,3.34,9.5,3.24,13.04-.21l17.17-16.74c15.8,10.57,34.12,17.95,53.97,21.23v22.6c0,4.8,4.13,8.69,9.22,8.69h24.88c5.1,0,9.22-3.89,9.22-8.69v-22.15c20.27-2.89,39.08-9.94,55.29-20.4l15.85,15.46c3.54,3.45,9.38,3.55,13.04.21l17.9-16.29c3.66-3.34,3.76-8.84.23-12.29l-15.76-15.38c12.74-15.92,21.53-34.73,25.09-55.25h24.27c5.1,0,9.22-3.89,9.22-8.69v-23.45c0-4.8-4.13-8.69-9.22-8.69Zm-156.13,60.01c-23.28,0-42.15-17.78-42.15-39.72s18.87-39.72,42.15-39.72,42.16,17.78,42.16,39.72-18.87,39.72-42.16,39.72Z"/>
      <g class="cls-10">
        <path id="Water-2" data-name="Water" class="cls-8" d="m48.02,288.67s17.11-5.7,91.08,17.59c73.97,23.3,86.35,29.25,142.88,11.05,69.92-22.51,97.04-12.93,124.64-11.05,27.61,1.88,97.28-22.92,103.36-17.19,6.08,5.73-36.48,143.22-54.72,160.41-18.24,17.19-67.73,101.89-125.06,108.23-57.34,6.34-133.32,16.66-165.25-34.33-31.93-50.99-80.67-86.29-74.54-108.74,6.13-22.45-54.43-92.01-42.39-125.98Z"/>
      </g>
      <g id="Highlights">
        <path class="cls-5" d="m133.95,100.18c69.61-52.82,158.78-69.3,238.59-28.93,10.73,5.41,21.04,11.54,30.79,18.42-10.94-4.8-21.76-9.58-32.88-13.54-85.47-31.42-157.47-15.84-236.51,24.05h0Z"/>
        <ellipse class="cls-9" cx="370.06" cy="499.52" rx="29.57" ry="11.24" transform="translate(-233.08 348.92) rotate(-39.45)"/>
        <path class="cls-7" d="m486.84,244.21c3.12,32.56,1.33,66.16-8.66,97.47-7.54,24.42-20.81,47.01-36.98,66.63,15.35-24.48,28.62-50.23,35.45-78.36,7.37-27.99,9.17-56.87,10.18-85.74h0Z"/>
        <path class="cls-2" d="m78.41,190.01c-19.91,96.33,9.08,182.44,59.32,264.02,8.11,13.12,15.94,26.48,25.72,38.48,9.62,12.08,20.51,23.21,30.95,34.74-17.32-15.59-34.92-31.54-48.25-50.9-60.04-84.02-98.79-183.32-67.73-286.34h0Z"/>
      </g>
    </g>
  </g>
</svg>