<?xml version="1.0" encoding="UTF-8"?>
<svg id="Layer_1" data-name="Layer 1" xmlns="http://www.w3.org/2000/svg" viewBox="0 0 468 468">
  <defs>
    <style>
      .cls-1 {
      fill: #4A4458;
      }
    </style>
  </defs>
  <path class="cls-1"
    d="m234,13.34C112.19,13.34,13.39,112.14,13.39,234.05s98.81,220.61,220.61,220.61,220.61-98.81,220.61-220.61S355.81,13.34,234,13.34Zm-47.2,310.92c0,14.6-11.8,26.4-26.4,26.4s-26.3-11.8-26.3-26.4c0-3.6.7-7,2-10.1l-36.6-42.1c-13.2-15.3-12.8-38.1,1-52.9l34.6-37c-.7-2.3-1-4.7-1-7.2,0-14.6,11.8-26.4,26.3-26.4s26.4,11.8,26.4,26.4-11.8,26.3-26.4,26.3c-2.2,0-4.4-.3-6.4-.8l-34.3,36.7c-4.6,4.9-4.7,12.5-.3,17.6l37.7,43.4c1.1-.2,2.2-.2,3.3-.2,1.5,0,3,.1,4.5.3l107.11-175.41c-2.6-4.1-3.9-9.3-3.1-14.6,1.6-11.7,12.5-19.9,24.2-18.2,11.8,1.7,19.9,12.5,18.3,24.3-1.7,11.7-12.6,19.9-24.3,18.2h-.3l-106.61,174.31c4.1,4.7,6.6,10.8,6.6,17.4Zm183.91-52.2l-36.6,42.1c1.3,3.1,2,6.5,2,10.1,0,14.6-11.8,26.4-26.3,26.4s-26.4-11.8-26.4-26.4,11.8-26.3,26.4-26.3c1.1,0,2.2,0,3.3.2l37.7-43.4c4.4-5.1,4.2-12.7-.4-17.6l-34.2-36.7c-2.1.5-4.2.8-6.4.8-14.6,0-26.4-11.8-26.4-26.3s11.8-26.4,26.4-26.4,26.3,11.8,26.3,26.4c0,2.5-.3,4.9-1,7.2l34.6,37c13.8,14.8,14.2,37.6,1,52.9Z" />
</svg>